<svg xmlns="http://www.w3.org/2000/svg" viewBox="0 0 64 64"><defs><style>.a{fill:#000842;}.b{fill:#f6ae2d;}.c{fill:#fff;}</style></defs><rect class="a" width="64" height="64"/><path class="b" d="M38.08,40.88H25.83V36.22A128.38,128.38,0,0,1,12.66,35V51.22h38.5V35A116.09,116.09,0,0,1,38,36.18Z"/><path class="c" d="M41.29,20.12V13.61a1.56,1.56,0,0,0-1.55-1.55H24.12a1.56,1.56,0,0,0-1.55,1.55v6.51H9.82V31.2a100.18,100.18,0,0,0,16,1.86V28.68H38v4.38A93.63,93.63,0,0,0,54,31.2V20.12ZM26,15.58H37.82v4.58H26Z"/><rect class="c" x="29" y="31.85" width="5.91" height="5.91"/></svg>